# xmcd CD database file
#
# Track frame offsets:
#	225
#	21727
#	43334
#	70006
#	94102
#	128964
#	148174
#	164057
#	195842
#	215514
#	240472
#	264058
#
# Disc length: 3813 seconds
#
# Revision: 0
# Processed by: cddbd v1.5.2PL0 Copyright (c) Steve Scherf et al.
# Submitted via: CDex 1.70beta2
#
DISCID=b10ee20c
DTITLE=Olaf Tarenskeen Acoustic trio - Missing Link
DYEAR=1900
DGENRE=Jazz
TTITLE0=The Nearness Of You
TTITLE1=Missing Link
TTITLE2=Geromatic
TTITLE3=How Deep Is The Ocean
TTITLE4=I Hear A Bossa
TTITLE5=Chinese Melodie
TTITLE6=Velocity On C
TTITLE7=End Of The Puzzle
TTITLE8=Wals No 3
TTITLE9=My Romance
TTITLE10=Fragile
TTITLE11=Yesterdays History
EXTD=
EXTT0=
EXTT1=
EXTT2=
EXTT3=
EXTT4=
EXTT5=
EXTT6=
EXTT7=
EXTT8=
EXTT9=
EXTT10=
EXTT11=
PLAYORDER=
